<svg width="30" height="30" viewBox="0 0 30 30" fill="none" xmlns="http://www.w3.org/2000/svg">
<path fill-rule="evenodd" clip-rule="evenodd" d="M7.93942 10.9395C8.22072 10.6583 8.60218 10.5003 8.99992 10.5003C9.39767 10.5003 9.77913 10.6583 10.0604 10.9395L14.9999 15.879L19.9394 10.9395C20.0778 10.7962 20.2433 10.682 20.4263 10.6033C20.6093 10.5247 20.8062 10.4834 21.0053 10.4816C21.2045 10.4799 21.402 10.5178 21.5864 10.5933C21.7707 10.6687 21.9382 10.7801 22.079 10.9209C22.2199 11.0617 22.3312 11.2292 22.4067 11.4136C22.4821 11.5979 22.52 11.7954 22.5183 11.9946C22.5166 12.1938 22.4752 12.3906 22.3966 12.5736C22.318 12.7566 22.2037 12.9221 22.0604 13.0605L16.0604 19.0605C15.7791 19.3417 15.3977 19.4997 14.9999 19.4997C14.6022 19.4997 14.2207 19.3417 13.9394 19.0605L7.93942 13.0605C7.65822 12.7792 7.50024 12.3977 7.50024 12C7.50024 11.6023 7.65822 11.2208 7.93942 10.9395Z" fill="white"/>
</svg>
