<svg width="7" height="11" viewBox="0 0 7 11" fill="none" xmlns="http://www.w3.org/2000/svg">
<path fill-rule="evenodd" clip-rule="evenodd" d="M1.29296 10.707C1.10549 10.5194 1.00017 10.2651 1.00017 9.99997C1.00017 9.73481 1.10549 9.4805 1.29296 9.29297L4.58596 5.99997L1.29296 2.70697C1.19745 2.61472 1.12127 2.50438 1.06886 2.38237C1.01645 2.26037 0.988862 2.12915 0.987708 1.99637C0.986554 1.86359 1.01186 1.73191 1.06214 1.60902C1.11242 1.48612 1.18667 1.37447 1.28056 1.28057C1.37446 1.18668 1.48611 1.11243 1.609 1.06215C1.7319 1.01187 1.86358 0.986565 1.99636 0.987719C2.12914 0.988872 2.26036 1.01646 2.38236 1.06887C2.50437 1.12128 2.61471 1.19746 2.70696 1.29297L6.70696 5.29297C6.89443 5.4805 6.99975 5.73481 6.99975 5.99997C6.99975 6.26513 6.89443 6.51944 6.70696 6.70697L2.70696 10.707C2.51943 10.8944 2.26512 10.9998 1.99996 10.9998C1.7348 10.9998 1.48049 10.8944 1.29296 10.707V10.707Z" fill="#F26F3F"/>
</svg>
