<svg width="44" height="44" viewBox="0 0 44 44" fill="none" xmlns="http://www.w3.org/2000/svg">
<rect x="44" width="44" height="44" rx="22" transform="rotate(90 44 0)" fill="white"/>
<path fill-rule="evenodd" clip-rule="evenodd" d="M26.0605 14.9395C26.3417 15.2208 26.4997 15.6022 26.4997 16C26.4997 16.3977 26.3417 16.7792 26.0605 17.0605L21.121 22L26.0605 26.9395C26.2038 27.0779 26.318 27.2434 26.3967 27.4264C26.4753 27.6094 26.5166 27.8062 26.5184 28.0054C26.5201 28.2046 26.4822 28.4021 26.4067 28.5864C26.3313 28.7708 26.2199 28.9382 26.0791 29.0791C25.9383 29.2199 25.7708 29.3313 25.5864 29.4067C25.4021 29.4821 25.2046 29.5201 25.0054 29.5184C24.8062 29.5166 24.6094 29.4753 24.4264 29.3966C24.2434 29.318 24.0779 29.2038 23.9395 29.0605L17.9395 23.0605C17.6583 22.7792 17.5003 22.3977 17.5003 22C17.5003 21.6022 17.6583 21.2208 17.9395 20.9395L23.9395 14.9395C24.2208 14.6583 24.6023 14.5003 25 14.5003C25.3978 14.5003 25.7792 14.6583 26.0605 14.9395Z" fill="#F26F3F"/>
</svg>
