<svg width="30" height="30" viewBox="0 0 30 30" fill="none" xmlns="http://www.w3.org/2000/svg">
<path d="M13.5 7.20601C11.8646 6.40975 10.069 5.99728 8.25 6.00001C6.3675 6.00001 4.5855 6.43501 3 7.20601V22.206C4.63545 21.4098 6.43104 20.9973 8.25 21C10.7535 21 13.077 21.765 15 23.0775C16.9891 21.7204 19.342 20.9962 21.75 21C23.6325 21 25.4145 21.435 27 22.206V7.20601C25.3646 6.40975 23.569 5.99728 21.75 6.00001C19.8675 6.00001 18.0855 6.43501 16.5 7.20601V18C16.5 18.3978 16.342 18.7794 16.0607 19.0607C15.7794 19.342 15.3978 19.5 15 19.5C14.6022 19.5 14.2206 19.342 13.9393 19.0607C13.658 18.7794 13.5 18.3978 13.5 18V7.20601Z" fill="white"/>
</svg>
