<svg width="30" height="30" viewBox="0 0 30 30" fill="none" xmlns="http://www.w3.org/2000/svg">
<path d="M3 7.5C3 6.70435 3.31607 5.94129 3.87868 5.37868C4.44129 4.81607 5.20435 4.5 6 4.5H16.5C17.2956 4.5 18.0587 4.81607 18.6213 5.37868C19.1839 5.94129 19.5 6.70435 19.5 7.5V13.5C19.5 14.2956 19.1839 15.0587 18.6213 15.6213C18.0587 16.1839 17.2956 16.5 16.5 16.5H13.5L9 21V16.5H6C5.20435 16.5 4.44129 16.1839 3.87868 15.6213C3.31607 15.0587 3 14.2956 3 13.5V7.5Z" fill="white"/>
<path d="M22.5 10.5V13.5C22.5 15.0913 21.8679 16.6174 20.7427 17.7426C19.6174 18.8679 18.0913 19.5 16.5 19.5H14.742L12.093 22.1505C12.513 22.374 12.9915 22.5 13.5 22.5H16.5L21 27V22.5H24C24.7957 22.5 25.5587 22.1839 26.1213 21.6213C26.6839 21.0587 27 20.2956 27 19.5V13.5C27 12.7044 26.6839 11.9413 26.1213 11.3787C25.5587 10.8161 24.7957 10.5 24 10.5H22.5Z" fill="white"/>
</svg>
