<svg width="30" height="30" viewBox="0 0 30 30" fill="none" xmlns="http://www.w3.org/2000/svg">
<path d="M10.5 4.5C10.1022 4.5 9.72064 4.65804 9.43934 4.93934C9.15804 5.22064 9 5.60218 9 6C9 6.39782 9.15804 6.77936 9.43934 7.06066C9.72064 7.34196 10.1022 7.5 10.5 7.5H19.5C19.8978 7.5 20.2794 7.34196 20.5607 7.06066C20.842 6.77936 21 6.39782 21 6C21 5.60218 20.842 5.22064 20.5607 4.93934C20.2794 4.65804 19.8978 4.5 19.5 4.5H10.5ZM6 10.5C6 10.1022 6.15804 9.72064 6.43934 9.43934C6.72064 9.15804 7.10218 9 7.5 9H22.5C22.8978 9 23.2794 9.15804 23.5607 9.43934C23.842 9.72064 24 10.1022 24 10.5C24 10.8978 23.842 11.2794 23.5607 11.5607C23.2794 11.842 22.8978 12 22.5 12H7.5C7.10218 12 6.72064 11.842 6.43934 11.5607C6.15804 11.2794 6 10.8978 6 10.5ZM3 16.5C3 15.7044 3.31607 14.9413 3.87868 14.3787C4.44129 13.8161 5.20435 13.5 6 13.5H24C24.7956 13.5 25.5587 13.8161 26.1213 14.3787C26.6839 14.9413 27 15.7044 27 16.5V22.5C27 23.2956 26.6839 24.0587 26.1213 24.6213C25.5587 25.1839 24.7956 25.5 24 25.5H6C5.20435 25.5 4.44129 25.1839 3.87868 24.6213C3.31607 24.0587 3 23.2956 3 22.5V16.5Z" fill="white"/>
</svg>
