<svg width="16" height="17" viewBox="0 0 16 17" fill="none" xmlns="http://www.w3.org/2000/svg">
<path d="M15.7541 7.37083H15.15V7.33774H8.40002V10.5267H12.6386C12.0203 12.383 10.3586 13.7156 8.40002 13.7156C5.9149 13.7156 3.90002 11.5738 3.90002 8.9322C3.90002 6.29059 5.9149 4.14884 8.40002 4.14884C9.54715 4.14884 10.5908 4.60884 11.3854 5.36022L13.5068 3.10527C12.1673 1.77828 10.3755 0.95993 8.40002 0.95993C4.25815 0.95993 0.900024 4.52951 0.900024 8.9322C0.900024 13.3349 4.25815 16.9045 8.40002 16.9045C12.5419 16.9045 15.9 13.3349 15.9 8.9322C15.9 8.39766 15.8483 7.87587 15.7541 7.37083Z" fill="#FFC107"/>
<path d="M8.40002 16.9044C10.3373 16.9044 12.0975 16.1164 13.4284 14.8348L11.1071 12.7469C10.3288 13.3761 9.37782 13.7164 8.40002 13.7155C6.44927 13.7155 4.79289 12.3933 4.16889 10.5481L1.72314 12.5512C2.96439 15.133 5.48515 16.9044 8.40002 16.9044Z" fill="#4CAF50"/>
<path d="M15.7541 7.37087H15.15V7.33778H8.40002V10.5267H12.6386C12.3429 11.4102 11.81 12.1822 11.106 12.7474L11.1071 12.7466L13.4284 14.8345C13.2641 14.9932 15.9 12.9184 15.9 8.93224C15.9 8.3977 15.8483 7.87591 15.7541 7.37087Z" fill="#1976D2"/>
<path d="M1.76477 5.22151L4.2289 7.14242C4.89565 5.38773 6.5104 4.14884 8.40002 4.14884C9.54715 4.14884 10.5908 4.60884 11.3854 5.36022L13.5068 3.10527C12.1673 1.77828 10.3755 0.95993 8.40002 0.95993C5.51927 0.95993 3.02102 2.68872 1.76477 5.22151Z" fill="#FF3D00"/>
</svg>
