<svg width="26" height="22" viewBox="0 0 26 22" fill="none" xmlns="http://www.w3.org/2000/svg">
<path d="M2.17818 4.72244C2.46087 4.03998 2.87521 3.41988 3.39755 2.89755C3.91988 2.37521 4.53998 1.96087 5.22244 1.67818C5.9049 1.3955 6.63636 1.25 7.37505 1.25C8.11374 1.25 8.8452 1.3955 9.52766 1.67818C10.2101 1.96087 10.8302 2.37521 11.3525 2.89755L13 4.54505L14.6475 2.89755C15.7024 1.84265 17.1332 1.25001 18.625 1.25001C20.1169 1.25001 21.5476 1.84265 22.6025 2.89755C23.6574 3.95245 24.2501 5.3832 24.2501 6.87505C24.2501 8.3669 23.6574 9.79765 22.6025 10.8525L13 20.455L3.39755 10.8525C2.87521 10.3302 2.46087 9.71012 2.17818 9.02766C1.8955 8.3452 1.75 7.61374 1.75 6.87505C1.75 6.13636 1.8955 5.4049 2.17818 4.72244Z" stroke="white" stroke-width="2" stroke-linecap="round" stroke-linejoin="round"/>
</svg>
