<svg width="30" height="30" viewBox="0 0 30 30" fill="none" xmlns="http://www.w3.org/2000/svg">
<path d="M16.3852 3.24499C16.0108 2.91253 15.5152 2.72729 15.0001 2.72729C14.485 2.72729 13.9893 2.91253 13.615 3.24499L3.84889 11.9154C3.54986 12.1813 3.31175 12.5016 3.14916 12.8569C2.98657 13.2122 2.90291 13.595 2.90332 13.9817V24.531C2.90386 25.2841 3.22271 26.0062 3.7898 26.5386C4.35689 27.0709 5.1258 27.37 5.92752 27.37H8.95171C9.75377 27.37 11.9759 27.3485 11.9759 27.3485C11.9759 27.3485 11.9759 25.2825 11.9759 24.5291V19.7942C11.9759 19.5431 12.0821 19.3022 12.2712 19.1246C12.4602 18.947 12.7166 18.8473 12.984 18.8473H17.0162C17.2836 18.8473 17.54 18.947 17.729 19.1246C17.9181 19.3022 18.0243 19.5431 18.0243 19.7942V24.5291C18.0243 25.2825 18.0243 27.3485 18.0243 27.3485C18.0243 27.3485 20.2464 27.37 21.0485 27.37H24.0727C24.8747 27.37 25.644 27.0707 26.2111 26.5379C26.7782 26.0051 27.0969 25.2825 27.0969 24.5291V13.9798C27.0967 13.5933 27.0126 13.2108 26.8497 12.8558C26.6868 12.5009 26.4484 12.1809 26.1493 11.9154L16.3852 3.2412V3.24499Z" fill="white"/>
</svg>
