<svg width="29" height="42" viewBox="0 0 29 42" fill="none" xmlns="http://www.w3.org/2000/svg">
<path fill-rule="evenodd" clip-rule="evenodd" d="M1 8.91536L14.3952 1L28.1456 8.91536V24.9998L1 40.6783V30.6319L19.5707 19.9766V14.0908C16.3741 14.0908 13.3804 12.4164 11.706 9.52423L9.27054 10.8942V16.1711L1 20.8391V8.91536ZM18.0484 36.2132V40.6276C21.3972 40.6952 28.0948 40.7899 28.0948 40.6276V30.3274L18.0484 36.2132Z" fill="#222324"/>
<path d="M14.3952 1L14.6447 0.566668L14.3919 0.421178L14.1409 0.569537L14.3952 1ZM1 8.91536L0.745635 8.4849L0.5 8.63005V8.91536H1ZM28.1456 8.91536H28.6456V8.62626L28.3951 8.48203L28.1456 8.91536ZM28.1456 24.9998L28.3957 25.4328L28.6456 25.2884V24.9998H28.1456ZM1 40.6783H0.5V41.5445L1.25007 41.1113L1 40.6783ZM1 30.6319L0.751165 30.1982L0.5 30.3423V30.6319H1ZM19.5707 19.9766L19.8195 20.4103L20.0707 20.2661V19.9766H19.5707ZM19.5707 14.0908H20.0707V13.5908H19.5707V14.0908ZM11.706 9.52423L12.1387 9.27372L11.8913 8.84634L11.4609 9.08845L11.706 9.52423ZM9.27054 10.8942L9.02541 10.4584L8.77054 10.6018V10.8942H9.27054ZM9.27054 16.1711L9.5163 16.6065L9.77054 16.463V16.1711H9.27054ZM1 20.8391H0.5V21.6955L1.24576 21.2746L1 20.8391ZM18.0484 40.6276H17.5484V41.1176L18.0383 41.1275L18.0484 40.6276ZM18.0484 36.2132L17.7956 35.7818L17.5484 35.9267V36.2132H18.0484ZM28.0948 30.3274H28.5948V29.455L27.8421 29.896L28.0948 30.3274ZM14.1409 0.569537L0.745635 8.4849L1.25436 9.34582L14.6496 1.43046L14.1409 0.569537ZM28.3951 8.48203L14.6447 0.566668L14.1458 1.43333L27.8962 9.34869L28.3951 8.48203ZM28.6456 24.9998V8.91536H27.6456V24.9998H28.6456ZM1.25007 41.1113L28.3957 25.4328L27.8956 24.5668L0.749929 40.2453L1.25007 41.1113ZM0.5 30.6319V40.6783H1.5V30.6319H0.5ZM19.3218 19.5429L0.751165 30.1982L1.24883 31.0655L19.8195 20.4103L19.3218 19.5429ZM19.0707 14.0908V19.9766H20.0707V14.0908H19.0707ZM11.2733 9.77475C13.0376 12.8222 16.1967 14.5908 19.5707 14.5908V13.5908C16.5514 13.5908 13.7232 12.0106 12.1387 9.27372L11.2733 9.77475ZM9.51567 11.33L11.9512 9.96002L11.4609 9.08845L9.02541 10.4584L9.51567 11.33ZM9.77054 16.1711V10.8942H8.77054V16.1711H9.77054ZM1.24576 21.2746L9.5163 16.6065L9.02477 15.7357L0.754235 20.4037L1.24576 21.2746ZM0.5 8.91536V20.8391H1.5V8.91536H0.5ZM18.5484 40.6276V36.2132H17.5484V40.6276H18.5484ZM27.5948 40.6276C27.5948 40.3957 27.7452 40.2684 27.7909 40.2343C27.8456 40.1934 27.8943 40.1758 27.9067 40.1714C27.9375 40.1603 27.9543 40.1589 27.9376 40.1617C27.9121 40.1659 27.8579 40.1719 27.7668 40.1781C27.5896 40.1901 27.3248 40.1992 26.9865 40.2057C26.3126 40.2184 25.3757 40.2197 24.3302 40.2138C22.2406 40.202 19.7316 40.1615 18.0585 40.1277L18.0383 41.1275C19.714 41.1613 22.2283 41.2019 24.3246 41.2138C25.3721 41.2197 26.3189 41.2185 27.0055 41.2055C27.3474 41.199 27.632 41.1895 27.8342 41.1758C27.9328 41.1691 28.0257 41.1606 28.1 41.1484C28.1331 41.143 28.188 41.1329 28.2443 41.1127C28.2695 41.1037 28.3278 41.0814 28.389 41.0357C28.4412 40.9967 28.5948 40.8644 28.5948 40.6276H27.5948ZM27.5948 30.3274V40.6276H28.5948V30.3274H27.5948ZM18.3011 36.6446L28.3476 30.7589L27.8421 29.896L17.7956 35.7818L18.3011 36.6446Z" fill="black"/>
</svg>
