<svg width="26" height="22" viewBox="0 0 26 22" fill="none" xmlns="http://www.w3.org/2000/svg">
<path d="M2.17812 4.72238C2.46081 4.03992 2.87515 3.41982 3.39749 2.89749C3.91982 2.37515 4.53992 1.96081 5.22238 1.67812C5.90484 1.39544 6.6363 1.24994 7.37499 1.24994C8.11368 1.24994 8.84514 1.39544 9.5276 1.67812C10.2101 1.96081 10.8302 2.37515 11.3525 2.89749L13 4.54499L14.6475 2.89749C15.7024 1.84259 17.1331 1.24995 18.625 1.24995C20.1168 1.24995 21.5476 1.84259 22.6025 2.89749C23.6574 3.95239 24.25 5.38314 24.25 6.87499C24.25 8.36684 23.6574 9.79759 22.6025 10.8525L13 20.455L3.39749 10.8525C2.87515 10.3302 2.46081 9.71006 2.17812 9.0276C1.89544 8.34514 1.74994 7.61368 1.74994 6.87499C1.74994 6.1363 1.89544 5.40484 2.17812 4.72238Z" fill="#F26F3F" stroke="#F26F3F" stroke-width="2" stroke-linecap="round" stroke-linejoin="round"/>
</svg>
