<svg width="25" height="22" viewBox="0 0 25 22" fill="none" xmlns="http://www.w3.org/2000/svg">
<path fill-rule="evenodd" clip-rule="evenodd" d="M1.758 2.758C2.88317 1.63317 4.40902 1.00128 6 1.00128C7.59099 1.00128 9.11683 1.63317 10.242 2.758L12 4.5145L13.758 2.758C14.3115 2.18494 14.9735 1.72784 15.7056 1.41339C16.4376 1.09894 17.2249 0.933419 18.0216 0.926496C18.8183 0.919573 19.6083 1.07138 20.3457 1.37307C21.0831 1.67475 21.753 2.12027 22.3164 2.68363C22.8797 3.24698 23.3252 3.9169 23.6269 4.65427C23.9286 5.39165 24.0804 6.18173 24.0735 6.97841C24.0666 7.77508 23.9011 8.5624 23.5866 9.29443C23.2722 10.0265 22.8151 10.6885 22.242 11.242L12 21.4855L1.758 11.242C0.633174 10.1168 0.00128174 8.59098 0.00128174 7C0.00128174 5.40901 0.633174 3.88316 1.758 2.758Z" fill="#F26F3F"/>
</svg>
