<svg width="16" height="16" viewBox="0 0 16 16" fill="none" xmlns="http://www.w3.org/2000/svg">
<path fill-rule="evenodd" clip-rule="evenodd" d="M8 0.5C8.39782 0.5 8.77936 0.658036 9.06066 0.93934C9.34196 1.22064 9.5 1.60218 9.5 2V6.5H14C14.3978 6.5 14.7794 6.65804 15.0607 6.93934C15.342 7.22064 15.5 7.60218 15.5 8C15.5 8.39782 15.342 8.77936 15.0607 9.06066C14.7794 9.34196 14.3978 9.5 14 9.5H9.5V14C9.5 14.3978 9.34196 14.7794 9.06066 15.0607C8.77936 15.342 8.39782 15.5 8 15.5C7.60218 15.5 7.22064 15.342 6.93934 15.0607C6.65804 14.7794 6.5 14.3978 6.5 14V9.5H2C1.60218 9.5 1.22064 9.34196 0.93934 9.06066C0.658036 8.77936 0.5 8.39782 0.5 8C0.5 7.60218 0.658036 7.22064 0.93934 6.93934C1.22064 6.65804 1.60218 6.5 2 6.5H6.5V2C6.5 1.60218 6.65804 1.22064 6.93934 0.93934C7.22064 0.658036 7.60218 0.5 8 0.5Z" fill="white"/>
</svg>
