<svg width="31" height="30" viewBox="0 0 31 30" fill="none" xmlns="http://www.w3.org/2000/svg">
<rect x="0.5" width="30" height="30" rx="10" fill="#F26F3F"/>
<path fill-rule="evenodd" clip-rule="evenodd" d="M15.5 7.5C15.8978 7.5 16.2794 7.65804 16.5607 7.93934C16.842 8.22064 17 8.60218 17 9V13.5H21.5C21.8978 13.5 22.2794 13.658 22.5607 13.9393C22.842 14.2206 23 14.6022 23 15C23 15.3978 22.842 15.7794 22.5607 16.0607C22.2794 16.342 21.8978 16.5 21.5 16.5H17V21C17 21.3978 16.842 21.7794 16.5607 22.0607C16.2794 22.342 15.8978 22.5 15.5 22.5C15.1022 22.5 14.7206 22.342 14.4393 22.0607C14.158 21.7794 14 21.3978 14 21V16.5H9.5C9.10218 16.5 8.72064 16.342 8.43934 16.0607C8.15804 15.7794 8 15.3978 8 15C8 14.6022 8.15804 14.2206 8.43934 13.9393C8.72064 13.658 9.10218 13.5 9.5 13.5H14V9C14 8.60218 14.158 8.22064 14.4393 7.93934C14.7206 7.65804 15.1022 7.5 15.5 7.5Z" fill="white"/>
</svg>
