<svg width="30" height="30" viewBox="0 0 30 30" fill="none" xmlns="http://www.w3.org/2000/svg">
<path d="M24.75 24.75L20 20M22.5 13.75C22.5 14.8991 22.2737 16.0369 21.8339 17.0985C21.3942 18.1601 20.7497 19.1247 19.9372 19.9372C19.1247 20.7497 18.1601 21.3942 17.0985 21.8339C16.0369 22.2737 14.8991 22.5 13.75 22.5C12.6009 22.5 11.4631 22.2737 10.4015 21.8339C9.33992 21.3942 8.37533 20.7497 7.56282 19.9372C6.7503 19.1247 6.10578 18.1601 5.66605 17.0985C5.22633 16.0369 5 14.8991 5 13.75C5 11.4294 5.92187 9.20376 7.56282 7.56282C9.20376 5.92187 11.4294 5 13.75 5C16.0706 5 18.2962 5.92187 19.9372 7.56282C21.5781 9.20376 22.5 11.4294 22.5 13.75Z" stroke="#F26F3F" stroke-width="2" stroke-linecap="round" stroke-linejoin="round"/>
</svg>
