<svg width="30" height="30" viewBox="0 0 30 30" fill="none" xmlns="http://www.w3.org/2000/svg">
<path fill-rule="evenodd" clip-rule="evenodd" d="M15 3C11.6865 3 8.99998 5.6865 8.99998 9V10.5H7.49998C6.73498 10.5 6.093 11.0745 6.009 11.835L4.509 25.335C4.4625 25.758 4.59749 26.1825 4.88249 26.5005C5.16749 26.8185 5.57398 27 5.99998 27H24C24.426 27 24.8325 26.8185 25.1175 26.5005C25.4025 26.1825 25.5375 25.758 25.491 25.335L23.991 11.835C23.907 11.0745 23.265 10.5 22.5 10.5H21V9C21 5.6865 18.3135 3 15 3ZM18 10.5V9C18 7.3425 16.6575 6 15 6C13.3425 6 12 7.3425 12 9V10.5H18ZM8.99998 15C8.99998 14.172 9.67199 13.5 10.5 13.5C11.328 13.5 12 14.172 12 15C12 15.828 11.328 16.5 10.5 16.5C9.67199 16.5 8.99998 15.828 8.99998 15ZM19.5 13.5C18.672 13.5 18 14.172 18 15C18 15.828 18.672 16.5 19.5 16.5C20.328 16.5 21 15.828 21 15C21 14.172 20.328 13.5 19.5 13.5Z" fill="white"/>
</svg>
