<svg width="44" height="44" viewBox="0 0 44 44" fill="none" xmlns="http://www.w3.org/2000/svg">
<rect width="44" height="44" rx="22" fill="white"/>
<path fill-rule="evenodd" clip-rule="evenodd" d="M11.758 14.758C12.8832 13.6332 14.409 13.0013 16 13.0013C17.591 13.0013 19.1168 13.6332 20.242 14.758L22 16.5145L23.758 14.758C24.3115 14.1849 24.9735 13.7278 25.7056 13.4134C26.4376 13.0989 27.2249 12.9334 28.0216 12.9265C28.8183 12.9196 29.6083 13.0714 30.3457 13.3731C31.0831 13.6748 31.753 14.1203 32.3164 14.6836C32.8797 15.247 33.3252 15.9169 33.6269 16.6543C33.9286 17.3917 34.0804 18.1817 34.0735 18.9784C34.0666 19.7751 33.9011 20.5624 33.5866 21.2944C33.2722 22.0265 32.8151 22.6885 32.242 23.242L22 33.4855L11.758 23.242C10.6332 22.1168 10.0013 20.591 10.0013 19C10.0013 17.409 10.6332 15.8832 11.758 14.758Z" fill="#F26F3F"/>
</svg>
