<svg width="23" height="30" viewBox="0 0 23 30" fill="none" xmlns="http://www.w3.org/2000/svg">
<path d="M18.55 8.07692C18.55 11.9886 15.3904 15.1538 11.5 15.1538C7.60949 15.1538 4.44995 11.9886 4.44995 8.07692C4.44995 4.1653 7.60949 1 11.5 1C15.3904 1 18.55 4.1653 18.55 8.07692Z" stroke="white" stroke-width="2"/>
<path d="M22 23.923C22 24.9351 21.1569 26.1186 19.1833 27.1087C17.2686 28.0692 14.5536 28.6923 11.5 28.6923C8.44641 28.6923 5.73136 28.0692 3.81668 27.1087C1.84313 26.1186 1 24.9351 1 23.923C1 22.911 1.84313 21.7275 3.81668 20.7374C5.73136 19.7769 8.44641 19.1538 11.5 19.1538C14.5536 19.1538 17.2686 19.7769 19.1833 20.7374C21.1569 21.7275 22 22.911 22 23.923Z" stroke="white" stroke-width="2"/>
</svg>
