<svg width="38" height="50" viewBox="0 0 38 50" fill="none" xmlns="http://www.w3.org/2000/svg">
<path d="M30.3 13.4615C30.3 19.8144 25.2181 24.9231 19 24.9231C12.7819 24.9231 7.7 19.8144 7.7 13.4615C7.7 7.10867 12.7819 2 19 2C25.2181 2 30.3 7.10867 30.3 13.4615Z" stroke="#222324" stroke-width="4"/>
<path d="M36 39.8717C36 41.374 34.7488 43.2584 31.5319 44.8863C28.428 46.4572 24.0002 47.4871 19 47.4871C13.9998 47.4871 9.57204 46.4572 6.46806 44.8863C3.25121 43.2584 2 41.374 2 39.8717C2 38.3695 3.25121 36.4851 6.46806 34.8571C9.57204 33.2863 13.9998 32.2563 19 32.2563C24.0002 32.2563 28.428 33.2863 31.5319 34.8571C34.7488 36.4851 36 38.3695 36 39.8717Z" stroke="#222324" stroke-width="4"/>
</svg>
