<svg width="30" height="30" viewBox="0 0 30 30" fill="none" xmlns="http://www.w3.org/2000/svg">
<path fill-rule="evenodd" clip-rule="evenodd" d="M27 19.5V7.5C27 6.70435 26.6839 5.94129 26.1213 5.37868C25.5587 4.81607 24.7956 4.5 24 4.5H6C5.20435 4.5 4.44129 4.81607 3.87868 5.37868C3.31607 5.94129 3 6.70435 3 7.5V19.5C3 20.2956 3.31607 21.0587 3.87868 21.6213C4.44129 22.1839 5.20435 22.5 6 22.5H10.5L15 27L19.5 22.5H24C24.7956 22.5 25.5587 22.1839 26.1213 21.6213C26.6839 21.0587 27 20.2956 27 19.5ZM7.5 10.5C7.5 10.1022 7.65804 9.72064 7.93934 9.43934C8.22064 9.15804 8.60218 9 9 9H21C21.3978 9 21.7794 9.15804 22.0607 9.43934C22.342 9.72064 22.5 10.1022 22.5 10.5C22.5 10.8978 22.342 11.2794 22.0607 11.5607C21.7794 11.842 21.3978 12 21 12H9C8.60218 12 8.22064 11.842 7.93934 11.5607C7.65804 11.2794 7.5 10.8978 7.5 10.5ZM9 15C8.60218 15 8.22064 15.158 7.93934 15.4393C7.65804 15.7206 7.5 16.1022 7.5 16.5C7.5 16.8978 7.65804 17.2794 7.93934 17.5607C8.22064 17.842 8.60218 18 9 18H13.5C13.8978 18 14.2794 17.842 14.5607 17.5607C14.842 17.2794 15 16.8978 15 16.5C15 16.1022 14.842 15.7206 14.5607 15.4393C14.2794 15.158 13.8978 15 13.5 15H9Z" fill="white"/>
</svg>
