<svg width="22" height="22" viewBox="0 0 22 22" fill="none" xmlns="http://www.w3.org/2000/svg">
<path d="M20.75 20.75L16 16M18.5 9.75C18.5 10.8991 18.2737 12.0369 17.8339 13.0985C17.3942 14.1601 16.7497 15.1247 15.9372 15.9372C15.1247 16.7497 14.1601 17.3942 13.0985 17.8339C12.0369 18.2737 10.8991 18.5 9.75 18.5C8.60093 18.5 7.46312 18.2737 6.40152 17.8339C5.33992 17.3942 4.37533 16.7497 3.56282 15.9372C2.7503 15.1247 2.10578 14.1601 1.66605 13.0985C1.22633 12.0369 1 10.8991 1 9.75C1 7.42936 1.92187 5.20376 3.56282 3.56282C5.20376 1.92187 7.42936 1 9.75 1C12.0706 1 14.2962 1.92187 15.9372 3.56282C17.5781 5.20376 18.5 7.42936 18.5 9.75Z" stroke="#F26F3F" stroke-width="2" stroke-linecap="round" stroke-linejoin="round"/>
</svg>
